<?xml version="1.0" encoding="utf-8"?>
<!-- Generator: Adobe Illustrator 21.0.2, SVG Export Plug-In . SVG Version: 6.00 Build 0)  -->
<svg version="1.1" id="Layer_1" xmlns="http://www.w3.org/2000/svg" xmlns:xlink="http://www.w3.org/1999/xlink" x="0px" y="0px"
	 viewBox="0 0 134.1 87.2" style="enable-background:new 0 0 134.1 87.2;" xml:space="preserve">
<style type="text/css">
	.st0{fill:#283B89;}
	.st1{fill:#FEDC00;}
	.st2{fill:#0D76BD;}
	.st3{fill:#283B89;stroke:#273C88;stroke-width:0.1;stroke-miterlimit:10;}
</style>
<path class="st0" d="M19.7,70.6l0-9.8c0-1.7-1.4-3.1-3.1-3.1c-1.7,0-3.1,1.4-3.1,3.1l0.1,9.8h-3.4l0-9.8c0-1.7-1.4-3.1-3.1-3.1
	c-1.7,0-3.1,1.4-3.1,3.1l0,9.8H0.8V54.4l3.4,0.9c0.9-0.5,2-0.8,3.1-0.8c1.9,0,3.5,0.8,4.7,2c0.9-1.1,2.8-2.1,4.8-2.1
	c3.6,0,6.5,2.9,6.5,6.5l0,9.7H19.7z"/>
<path class="st0" d="M45.8,70.6l0-8.8c0-2.2-1.8-4-4.1-4c-2.2,0-4,1.8-4,4l0,8.8h-3.4V54.4l3.4,1.2c1.2-0.8,2.6-1.2,4.2-1.2
	c4.1,0,7.5,3.3,7.4,7.4l-0.1,8.8H45.8z"/>
<path class="st0" d="M67.1,43.5v27.3l-3.4-1.3c-1.2,0.9-2.6,1.4-4.1,1.4c-4.1,0-7.4-3.7-7.4-8.4c0-4.6,3.3-8.4,7.4-8.4
	c1.5,0,2.9,0.5,4.1,1.4l0-12H67.1z M59.6,57.5c-2.2,0-4,2.2-4,5c0,2.8,1.8,5,4.1,5c2.2,0,4-2.2,4-5C63.7,59.7,61.9,57.5,59.6,57.5
	L59.6,57.5z"/>
<path class="st0" d="M82.3,70.6v-8.8c0-2.2-1.8-4-4-4c-2.3,0-4.1,1.8-4.1,4v8.8h-3.4V43.3h3.4v12.3c1.2-0.8,2.5-1.2,4.1-1.2
	c4.1,0,7.4,3.3,7.4,7.4v8.8H82.3z"/>
<path class="st0" d="M104,54.7l-0.1,9.1c0,4.1-3.4,7.4-7.5,7.4c-4.1,0-7.4-3.3-7.4-7.4l0.1-9.1h3.4l0,9.1c0,2.2,1.8,4,4,4
	c2.3,0,4.1-1.8,4.1-4l0.1-9.1H104z"/>
<path class="st0" d="M110.7,55.5c1.2-0.9,2.6-1.4,4.1-1.4c4.1,0,7.4,3.7,7.4,8.3c0,4.6-3.3,8.4-7.4,8.4c-1.5,0-2.9-0.5-4.1-1.3
	l-3.4,1.2V43.5h3.4L110.7,55.5L110.7,55.5z M114.8,67.4c2.2,0,4-2.2,4-4.9c0-2.8-1.8-5-4.1-5c-2.2,0-4,2.2-4,4.9
	C110.7,65.2,112.5,67.4,114.8,67.4z"/>
<ellipse transform="matrix(0.982 -0.189 0.189 0.982 -0.4283 7.8927)" class="st1" cx="41.2" cy="6.2" rx="4.4" ry="4.4"/>
<ellipse transform="matrix(0.982 -0.1889 0.1889 0.982 -2.8053 6.0546)" class="st1" cx="30.4" cy="17.7" rx="4.4" ry="4.4"/>
<ellipse transform="matrix(0.982 -0.1889 0.1889 0.982 -5.2832 7.7453)" class="st2" cx="38" cy="31.6" rx="4.4" ry="4.4"/>
<ellipse transform="matrix(0.982 -0.1887 0.1887 0.982 -4.4368 10.6182)" class="st1" cx="53.5" cy="28.6" rx="4.4" ry="4.4"/>
<ellipse transform="matrix(0.982 -0.1889 0.1889 0.982 -1.4387 10.7135)" class="st1" cx="55.5" cy="12.9" rx="4.4" ry="4.4"/>
<path class="st2" d="M35.8,44.1c1,3.8,2.7,6.7,2.7,6.7c-0.7-4.7-0.2-10.5-0.2-10.5L30.6,37c0,0-5.2,3-7.9,8.3c0,0,3-2.6,6.5-3.8
	c-1.3,5.3-3.1,15.2-2.4,29.1h3.4C30.2,70.6,29.8,50.9,35.8,44.1z"/>
<g>
	<path class="st3" d="M3.4,79.6v5.6H2.2v-5.6H0.1v-1h5.5v1H3.4z"/>
	<path class="st3" d="M9.4,85.2v-3c0-0.3-0.1-0.5-0.3-0.7c-0.2-0.2-0.4-0.3-0.7-0.3c-0.2,0-0.4,0-0.6,0.2c-0.2,0.1-0.3,0.2-0.4,0.3
		v3.5H6.3v-6.6l1.1-0.3v2.4c0.3-0.3,0.7-0.4,1.2-0.4c0.6,0,1.1,0.2,1.4,0.5c0.3,0.3,0.5,0.8,0.5,1.4v3H9.4z"/>
	<path class="st3" d="M16.1,83.1h-3.5c0,0.4,0.2,0.7,0.4,0.9s0.6,0.3,1,0.3c0.5,0,0.9-0.1,1.2-0.4l0.4,0.9c-0.4,0.3-1,0.5-1.8,0.5
		c-0.7,0-1.3-0.2-1.8-0.6s-0.6-1-0.6-1.8c0-0.8,0.2-1.4,0.7-1.9s1-0.7,1.7-0.7c0.7,0,1.3,0.2,1.7,0.6c0.4,0.4,0.6,1,0.6,1.6
		C16.2,82.6,16.2,82.9,16.1,83.1z M12.7,82.3H15c-0.1-0.7-0.5-1.1-1.2-1.1C13.2,81.2,12.8,81.6,12.7,82.3z"/>
	<path class="st3" d="M24.5,78.9l-0.5,1c-0.3-0.3-0.7-0.4-1.3-0.4c-0.6,0-1,0.2-1.4,0.7c-0.4,0.5-0.5,1-0.5,1.8
		c0,0.7,0.2,1.3,0.5,1.7s0.8,0.6,1.3,0.6c0.6,0,1.1-0.2,1.5-0.7l0.5,0.9c-0.5,0.5-1.2,0.8-2.1,0.8c-0.9,0-1.6-0.3-2.2-0.9
		c-0.5-0.6-0.8-1.4-0.8-2.5c0-1,0.3-1.8,0.9-2.5c0.6-0.7,1.3-1,2.2-1C23.4,78.5,24,78.6,24.5,78.9z"/>
	<path class="st3" d="M29.9,83.1h-3.5c0,0.4,0.2,0.7,0.4,0.9s0.6,0.3,1,0.3c0.5,0,0.9-0.1,1.2-0.4l0.4,0.9c-0.4,0.3-1,0.5-1.8,0.5
		c-0.7,0-1.3-0.2-1.8-0.6s-0.6-1-0.6-1.8c0-0.8,0.2-1.4,0.7-1.9s1-0.7,1.7-0.7c0.7,0,1.3,0.2,1.7,0.6c0.4,0.4,0.6,1,0.6,1.6
		C30,82.6,29.9,82.9,29.9,83.1z M26.5,82.3h2.4c-0.1-0.7-0.5-1.1-1.2-1.1C27,81.2,26.6,81.6,26.5,82.3z"/>
	<path class="st3" d="M33.7,81.4c-0.2-0.1-0.4-0.2-0.7-0.2c-0.3,0-0.5,0.1-0.7,0.4c-0.2,0.2-0.3,0.5-0.3,0.9v2.8h-1.1v-4.8H32v0.4
		c0.3-0.4,0.7-0.5,1.3-0.5c0.4,0,0.7,0.1,0.9,0.2L33.7,81.4z"/>
	<path class="st3" d="M35,81.3h-0.6v-0.9H35v-1l1.1-0.4v1.4h1.3v0.9h-1.3v2.1c0,0.3,0.1,0.6,0.2,0.7c0.1,0.1,0.3,0.2,0.6,0.2
		s0.5-0.1,0.8-0.2v1c-0.3,0.1-0.6,0.1-1.1,0.1c-0.5,0-0.9-0.1-1.1-0.4c-0.3-0.3-0.4-0.7-0.4-1.2V81.3z"/>
	<path class="st3" d="M38.8,85.2v-3.9h-0.6v-0.9h1.8v4.8H38.8z M39.4,78.5c0.2,0,0.3,0.1,0.5,0.2C40,78.8,40,79,40,79.1
		s-0.1,0.3-0.2,0.5c-0.1,0.1-0.3,0.2-0.5,0.2s-0.3-0.1-0.5-0.2s-0.2-0.3-0.2-0.5s0.1-0.3,0.2-0.5C39,78.6,39.2,78.5,39.4,78.5z"/>
	<path class="st3" d="M44,79.4c-0.2-0.1-0.4-0.1-0.6-0.1c-0.2,0-0.4,0.1-0.5,0.3c-0.1,0.2-0.2,0.4-0.2,0.7c0,0,0,0.1,0,0.1h1v0.9h-1
		v3.9h-1.1v-3.9h-0.7v-0.9h0.7c0-0.6,0.2-1.1,0.5-1.4s0.7-0.5,1.3-0.5c0.3,0,0.6,0.1,1,0.2L44,79.4z"/>
	<path class="st3" d="M45,85.2v-3.9h-0.6v-0.9h1.8v4.8H45z M45.6,78.5c0.2,0,0.3,0.1,0.5,0.2c0.1,0.1,0.2,0.3,0.2,0.5
		s-0.1,0.3-0.2,0.5c-0.1,0.1-0.3,0.2-0.5,0.2s-0.3-0.1-0.5-0.2s-0.2-0.3-0.2-0.5s0.1-0.3,0.2-0.5C45.2,78.6,45.4,78.5,45.6,78.5z"/>
	<path class="st3" d="M51.2,80.8l-0.5,0.8c-0.3-0.2-0.6-0.4-1.1-0.4c-0.4,0-0.8,0.1-1,0.4c-0.2,0.3-0.4,0.7-0.4,1.2
		c0,1,0.5,1.5,1.5,1.5c0.4,0,0.8-0.1,1.1-0.4l0.4,0.9c-0.3,0.2-0.6,0.3-0.9,0.4c-0.2,0.1-0.5,0.1-0.9,0.1c-0.7,0-1.3-0.2-1.8-0.7
		c-0.4-0.4-0.6-1-0.6-1.8c0-0.8,0.2-1.4,0.7-1.8c0.5-0.5,1.1-0.7,1.9-0.7C50.3,80.3,50.8,80.4,51.2,80.8z"/>
	<path class="st3" d="M54.9,84.7c-0.1,0.2-0.3,0.3-0.5,0.4c-0.3,0.1-0.5,0.2-0.8,0.2c-0.5,0-0.9-0.1-1.2-0.4
		c-0.3-0.3-0.4-0.6-0.4-1.1c0-0.6,0.2-1,0.6-1.3s1-0.5,1.8-0.5c0.1,0,0.3,0,0.5,0.1c0-0.6-0.4-0.9-1.1-0.9c-0.4,0-0.8,0.1-1.1,0.2
		l-0.2-0.9c0.4-0.2,0.9-0.3,1.4-0.3c0.7,0,1.3,0.2,1.6,0.5s0.5,1,0.5,1.9v1c0,0.6,0.1,1.1,0.4,1.2c-0.1,0.2-0.2,0.3-0.3,0.3
		c-0.1,0-0.2,0.1-0.4,0.1c-0.2,0-0.3-0.1-0.4-0.2C55,85,54.9,84.9,54.9,84.7z M54.8,82.9c-0.2,0-0.3-0.1-0.4-0.1
		c-0.9,0-1.3,0.3-1.3,0.9c0,0.4,0.3,0.7,0.8,0.7c0.7,0,1-0.3,1-1V82.9z"/>
	<path class="st3" d="M57.3,81.3h-0.6v-0.9h0.6v-1l1.1-0.4v1.4h1.3v0.9h-1.3v2.1c0,0.3,0.1,0.6,0.2,0.7c0.1,0.1,0.3,0.2,0.6,0.2
		s0.5-0.1,0.8-0.2v1c-0.3,0.1-0.6,0.1-1.1,0.1c-0.5,0-0.9-0.1-1.1-0.4c-0.3-0.3-0.4-0.7-0.4-1.2V81.3z"/>
	<path class="st3" d="M61.1,85.2v-3.9h-0.6v-0.9h1.8v4.8H61.1z M61.7,78.5c0.2,0,0.3,0.1,0.5,0.2c0.1,0.1,0.2,0.3,0.2,0.5
		s-0.1,0.3-0.2,0.5c-0.1,0.1-0.3,0.2-0.5,0.2s-0.3-0.1-0.5-0.2S61,79.3,61,79.1s0.1-0.3,0.2-0.5C61.3,78.6,61.5,78.5,61.7,78.5z"/>
	<path class="st3" d="M63.2,82.8c0-0.7,0.2-1.3,0.6-1.8s1-0.7,1.7-0.7c0.7,0,1.3,0.2,1.7,0.7s0.6,1.1,0.6,1.8c0,0.8-0.2,1.4-0.6,1.8
		c-0.4,0.5-1,0.7-1.7,0.7c-0.7,0-1.3-0.2-1.7-0.7C63.4,84.2,63.2,83.5,63.2,82.8z M64.4,82.8c0,1.1,0.4,1.6,1.2,1.6
		c0.4,0,0.6-0.1,0.8-0.4c0.2-0.3,0.3-0.7,0.3-1.2c0-1.1-0.4-1.6-1.1-1.6c-0.4,0-0.6,0.1-0.8,0.4C64.5,81.9,64.4,82.3,64.4,82.8z"/>
	<path class="st3" d="M71.9,85.2v-2.8c0-0.4-0.1-0.7-0.2-0.9c-0.2-0.2-0.4-0.3-0.8-0.3c-0.2,0-0.3,0-0.5,0.1
		c-0.2,0.1-0.3,0.2-0.4,0.3v3.5h-1.1v-4.8h0.8l0.2,0.5c0.3-0.4,0.8-0.5,1.4-0.5c0.6,0,1,0.2,1.4,0.5c0.3,0.3,0.5,0.8,0.5,1.4v3H71.9
		z"/>
	<path class="st3" d="M78.3,82.8v2.4h-1.2v-6.6c0.8,0,1.2,0,1.4,0c1,0,1.8,0.2,2.3,0.5c0.5,0.3,0.7,0.8,0.7,1.5
		c0,1.5-0.9,2.3-2.7,2.3C78.7,82.8,78.5,82.8,78.3,82.8z M78.3,79.6v2.1c0.2,0,0.4,0,0.5,0c0.5,0,0.9-0.1,1.2-0.3
		c0.2-0.2,0.4-0.5,0.4-0.9c0-0.7-0.6-1-1.7-1C78.5,79.6,78.4,79.6,78.3,79.6z"/>
	<path class="st3" d="M85.3,81.4c-0.2-0.1-0.4-0.2-0.7-0.2c-0.3,0-0.5,0.1-0.7,0.4c-0.2,0.2-0.3,0.5-0.3,0.9v2.8h-1.1v-4.8h1.1v0.4
		c0.3-0.4,0.7-0.5,1.3-0.5c0.4,0,0.7,0.1,0.9,0.2L85.3,81.4z"/>
	<path class="st3" d="M90.8,83.1h-3.5c0,0.4,0.2,0.7,0.4,0.9s0.6,0.3,1,0.3c0.5,0,0.9-0.1,1.2-0.4l0.4,0.9c-0.4,0.3-1,0.5-1.8,0.5
		c-0.7,0-1.3-0.2-1.8-0.6s-0.6-1-0.6-1.8c0-0.8,0.2-1.4,0.7-1.9s1-0.7,1.7-0.7c0.7,0,1.3,0.2,1.7,0.6c0.4,0.4,0.6,1,0.6,1.6
		C90.9,82.6,90.8,82.9,90.8,83.1z M87.3,82.3h2.4c-0.1-0.7-0.5-1.1-1.2-1.1C87.9,81.2,87.5,81.6,87.3,82.3z"/>
	<path class="st3" d="M92.8,85.1v2h-1.1v-6.7h1.1v0.3c0.3-0.3,0.6-0.4,1-0.4c1.5,0,2.3,0.8,2.3,2.6c0,0.8-0.2,1.4-0.6,1.8
		c-0.4,0.4-1,0.6-1.7,0.6C93.4,85.3,93.1,85.2,92.8,85.1z M92.8,81.6v2.5c0.2,0.2,0.4,0.2,0.7,0.2c0.5,0,0.9-0.1,1.1-0.4
		c0.2-0.2,0.3-0.6,0.3-1.2c0-0.6-0.1-1-0.3-1.2c-0.2-0.2-0.6-0.3-1.1-0.3C93.3,81.2,93,81.3,92.8,81.6z"/>
	<path class="st3" d="M99.7,84.8l0.4-1.1c0.5,0.3,0.9,0.5,1.4,0.5c0.7,0,1-0.2,1-0.7c0-0.2-0.1-0.4-0.2-0.6c-0.2-0.2-0.5-0.4-1-0.7
		s-0.8-0.5-1-0.6s-0.3-0.4-0.4-0.6c-0.1-0.2-0.1-0.5-0.1-0.8c0-0.5,0.2-0.9,0.6-1.3s0.9-0.5,1.4-0.5c0.8,0,1.3,0.1,1.7,0.4l-0.4,1
		c-0.4-0.3-0.8-0.4-1.3-0.4c-0.3,0-0.5,0.1-0.6,0.2c-0.1,0.1-0.2,0.3-0.2,0.6c0,0.4,0.4,0.8,1.3,1.2c0.4,0.2,0.8,0.4,1,0.6
		c0.2,0.2,0.3,0.4,0.4,0.6c0.1,0.2,0.2,0.5,0.2,0.8c0,0.5-0.2,1-0.6,1.3c-0.4,0.3-1,0.5-1.7,0.5C100.8,85.3,100.2,85.2,99.7,84.8z"
		/>
	<path class="st3" d="M104.9,81.3h-0.6v-0.9h0.6v-1L106,79v1.4h1.3v0.9H106v2.1c0,0.3,0.1,0.6,0.2,0.7c0.1,0.1,0.3,0.2,0.6,0.2
		s0.5-0.1,0.8-0.2v1c-0.3,0.1-0.6,0.1-1.1,0.1c-0.5,0-0.9-0.1-1.1-0.4c-0.3-0.3-0.4-0.7-0.4-1.2V81.3z"/>
	<path class="st3" d="M108,82.8c0-0.7,0.2-1.3,0.6-1.8s1-0.7,1.7-0.7c0.7,0,1.3,0.2,1.7,0.7s0.6,1.1,0.6,1.8c0,0.8-0.2,1.4-0.6,1.8
		c-0.4,0.5-1,0.7-1.7,0.7c-0.7,0-1.3-0.2-1.7-0.7C108.2,84.2,108,83.5,108,82.8z M109.2,82.8c0,1.1,0.4,1.6,1.2,1.6
		c0.4,0,0.6-0.1,0.8-0.4c0.2-0.3,0.3-0.7,0.3-1.2c0-1.1-0.4-1.6-1.1-1.6c-0.4,0-0.6,0.1-0.8,0.4C109.3,81.9,109.2,82.3,109.2,82.8z"
		/>
	<path class="st3" d="M116.4,81.4c-0.2-0.1-0.4-0.2-0.7-0.2c-0.3,0-0.5,0.1-0.7,0.4c-0.2,0.2-0.3,0.5-0.3,0.9v2.8h-1.1v-4.8h1.1v0.4
		c0.3-0.4,0.7-0.5,1.3-0.5c0.4,0,0.7,0.1,0.9,0.2L116.4,81.4z"/>
	<path class="st3" d="M121.9,83.1h-3.5c0,0.4,0.2,0.7,0.4,0.9s0.6,0.3,1,0.3c0.5,0,0.9-0.1,1.2-0.4l0.4,0.9c-0.4,0.3-1,0.5-1.8,0.5
		c-0.7,0-1.3-0.2-1.8-0.6s-0.6-1-0.6-1.8c0-0.8,0.2-1.4,0.7-1.9s1-0.7,1.7-0.7c0.7,0,1.3,0.2,1.7,0.6c0.4,0.4,0.6,1,0.6,1.6
		C122,82.6,121.9,82.9,121.9,83.1z M118.5,82.3h2.4c-0.1-0.7-0.5-1.1-1.2-1.1C119,81.2,118.6,81.6,118.5,82.3z"/>
</g>
<g>
	<path class="st0" d="M124.6,55.5h-1.3v-0.9h3.8v0.9h-1.3v4h-1.1V55.5z"/>
	<path class="st0" d="M131.8,57.6c0-0.6,0-1.3,0-2h0c-0.2,0.6-0.4,1.3-0.5,1.9l-0.6,1.9h-0.9l-0.5-1.9c-0.2-0.6-0.3-1.3-0.4-1.9h0
		c0,0.7-0.1,1.4-0.1,2l-0.1,1.9h-1l0.3-4.9h1.5l0.5,1.6c0.2,0.6,0.3,1.2,0.4,1.8h0c0.1-0.6,0.3-1.2,0.5-1.8l0.5-1.6h1.4l0.3,4.9
		h-1.1L131.8,57.6z"/>
</g>
</svg>
